<svg xmlns="http://www.w3.org/2000/svg" version="1.1" xmlns:xlink="http://www.w3.org/1999/xlink" xmlns:svgjs="http://svgjs.dev/svgjs" width="2000" height="2250" viewBox="0 0 2000 2250"><g transform="matrix(1,0,0,1,0.000015624999718966137,0)"><svg viewBox="0 0 320 360" data-background-color="#ffffff" preserveAspectRatio="xMidYMid meet" height="2250" width="2000" xmlns="http://www.w3.org/2000/svg" xmlns:xlink="http://www.w3.org/1999/xlink"><g id="tight-bounds" transform="matrix(1,0,0,1,0.0000025000000505315256,0)"><svg viewBox="0 0 320 360" height="360" width="320"><g><svg></svg></g><g><svg viewBox="0 0 320 360" height="360" width="320"><g><path transform="translate(-19.44751,3.1739) scale(3.53591,3.53591)" d="M67.6 10.7c0.2 0 1.8 0.8 2.7 1.1-0.3 0.1-1-0.2-1.8-0.5 0.2 0 0.6 0.1 1 0.3-0.2-0.2-1.7-0.7-1.9-0.9M52.7 7.6c0.3-0.1 3.8 0.4 5.4 0.5 0.1-0.1-0.2-0.1-0.6-0.2 0.5-0.1 1.5 0.2 2.2 0.3-2.1 0.1-4.4-0.5-6.4-0.3-0.7 0-0.2-0.2-0.6-0.3M49.8 7.6c1.8 0 3.2 0 0.6 0.2-0.3-0.1-0.7-0.1-0.6-0.2M78.1 15.9c0.2 0 1 0.9 1.4 1.2-0.1 0.1-0.9-0.7-1.3-1 0.1 0.1 0 0-0.1-0.2M76.1 14.6c-0.8-0.7-1.1-0.7-1.2-1.1 0.7 0.4 1.2 0.8 1.2 1.1M63.2 8.3c0.1-0.1 0.3 0.1 0.8 0.2-0.6-0.1-0.5 0-0.3 0.2-0.7-0.1-0.9-0.2-0.7-0.4 0.4 0.2 0.5 0.1 0.2 0M34.8 9.5c0-0.1 0.4-0.3 0.7-0.4-0.3 0.2-0.2 0.3 0.3 0.1 0 0.1-0.6 0.3-1 0.5 0.2-0.1 0.4-0.4 0-0.2M65.2 7.3c-0.3 0.1-1.4-0.5-2.5-0.7-0.6-0.2 2.4 0.5 2.5 0.7M6.2 56.7c0.6 2.5 0.2 2.4 0 0M6.3 41.7c0.1-0.4 0.2-1.5 0.3-1.4-0.3 2.4-0.8 3.5-0.9 5.3 0.3-1.6-0.1 0.9-0.2 1.5 0.1 0.8 0.1-0.5 0.3-0.3 0.2 0.3-0.4 4.5-0.2 2.2-0.2 2.1 0 4.4 0.4 5-0.5 3.2 2 10.4 2.5 11.9 0.1 0.1 0-0.5 0.2-0.1 0.2 1.3 1.1 2.2 1.4 3.6 0.3 0.4 1.5 2.6 1.7 3.1 0.4 0.8 0.6 0.7 1 1.5 1.2 2.3 3.1 4.5 4.9 6.6 5.8 6.8 14.7 12.4 24.6 14.4 9.9 2.1 20.3 0.6 28.4-3.3 0.5-0.3 0.4-0.4 1-0.6 2.8-0.9 6.2-3.8 8.1-4.9 0.9-1 3.3-2.7 3.6-3.7 1.7-1.4 3.4-3.7 4.3-5.2 0.5-0.8 0.9-0.8 1.1-1.3-0.1 0 1.6-2.1 2.1-3.3-0.2 0-0.5 0.6-0.5 0 3.6-6.9 5.6-16.2 4.5-22.6 0.2 7.9-1.8 16.7-5.6 22.3-1.7 3.6-5.2 7.5-8.4 10.3-0.5 0.5-1 1.1-1.6 1.5-1.9 1.6-4 2.9-6.2 4.1-5.2 2.9-11 5.4-17.8 5.5 11.7-1 22.2-6.9 28-14.1-4.4 4.3-6.3 6-11.2 8.5-0.4 0.7-3.7 2.1-5.9 2.7 1.3-0.6 4-1.6 4.9-2.4-7.3 3.5-15.4 5.5-23 4.4 2.9 0 7 0.1 10.9-0.6 0.6-0.2 0.9-0.4 1.6-0.5 7.6-1.7 14.9-5.4 20.1-10.6-3 2.7-7.5 5.9-10.4 6.9 2.7-1.5 7.6-4.4 9.2-6.6-3.2 3.2-9.2 6.4-13 7.8-0.6 0.1 0.4-0.4-0.6 0-1.2 0.3-0.7 0.3-1 0.5-4.6 1.3-9.9 2.4-14.3 2-0.8-0.1-1.1-0.3-1.8-0.3-0.8-0.1-1.5-0.1-2.4-0.1-3.5-0.4-7.3-1.8-10.1-3-1.5-0.7-3-1.2-4.5-2.1-1.2-0.7-2.2-1.5-3.2-2.3-3.8-2.8-7-5.6-10-9.6-5.4-7.5-8.2-16.9-7.8-26.2 0.4-9.3 4.1-18.4 10-25.1-0.3 0.3 0.4-0.7 1-1.3 0 0.2-0.1 0.5 0.6-0.2 0.6-0.7-0.2-0.2 0.1-0.6 6.2-6.8 17-12.3 28.1-12.5 0.4-0.3 1.1-0.7 1.9-0.5 0 0.1-0.5 0.1-0.5 0.1 1.1-0.1 2.1-0.1 2.6 0.1 0.1-0.1-0.4-0.2 0-0.2 0.7 0.2 0.9 0 1.3 0.2-0.3 0-0.6 0-0.8 0.1 2.5 0 4.1 0.6 6.6 0.8-1.3-0.3-1.6-0.3-2.6-0.6 1.1 0.2 1.6 0.4 2.1 0.3-0.2 0-0.1-0.3 0.1-0.2 2 0.5 2.2 0.7 4.3 1.4 0.2-0.2-0.9-0.3-1.2-0.6 2 0.7 3.8 1.2 5 2-0.4-0.3-1.6-0.7-2.5-1.1-0.1 0.1 0.3 0.2 0.4 0.4-1-0.5-2.4-1-3.8-1.2 1.2 0.3 2 0.7 2.5 0.9-1.1-0.2-2.5-0.9-4.1-1.2 2.6 0.8 7.5 2.6 10.5 4.2-1.1-0.7-2.4-1.2-3.1-1.6 0.6 0.1 1.3 0.5 1.3 0.3 0.7 0.3 1.6 1 2.1 1.1-0.9-0.6-2.7-1.5-3.3-1.8 7.5 3.4 14.2 9.1 18.5 16.4 0.4 0.7 1 2.3 1.5 2.5-0.1-0.5-0.5-0.8-0.9-1.6 0.2 0 0.2-0.3 0-0.6-0.4-0.5 0 0.4-0.4-0.1-1.8-3.3-4-6.2-7.4-9.4 1.9 1.8 0.5 0.5 0.1-0.1 2.6 2.3 5.6 6.2 6.9 8.2-0.2-0.3-0.3-0.5-0.2-0.5 2.4 4.1 3.9 7.8 5.4 13.1 0.1 0.1 0-0.4 0.2-0.1 1 4.2 1.3 7.7 1.2 10.9 0.8-5.4-1-13.8-4.2-20.4-0.4-0.8-0.4-0.2-0.8-1.1 0-0.3-0.3-0.9-0.5-1.3-4-6.6-8.9-11.3-14.7-15 0.4 0.2 1.2 0.8 1.2 0.7-10.8-7.1-23.3-8.1-33.6-5.9-0.7 0.3-1 0.6-1.8 1 1.5-0.5 2.4-0.6 3.8-0.9 0.3-0.3-1.3 0.1-0.6-0.2 0.1 0.1 1.4-0.2 1.7-0.1 0 0.1-0.4 0.2-0.5 0.3 3.3-0.7 6.7-0.8 9.6-0.6-1.7 0.1-4.8-0.2-5.8 0.3 1-0.1 2.4-0.2 3.3-0.1-1.2 0-3.4 0.1-4.4 0.2-0.1-0.1 1.6-0.3 0.5-0.3-0.5 0.1-1.3 0.1-1.6 0.4-8.6 0.8-17 5.3-22.9 10.6-1.2 1-2.6 2.1-3.5 3.2-2.2 2.5-3.6 5-5.2 7.2 1-2.1 3.2-5.3 5.8-8 2.6-2.7 5.4-5 6.9-6.2 0 0.4 2.4-1.5 3.3-2.1-0.6 0.5 0.4-0.2 0.6-0.1 3.2-1.9 5.8-2.6 8.7-3.7-0.7 0.2-1.3 0.4-1.4 0.3 0.7-0.2 1.1-0.4 1-0.5-2.8 0.8-7.2 2.7-10.7 4.8 6.3-4.3 14.3-6.9 22.2-7 7.9-0.2 15.6 1.8 21.7 5 4.1 1.8 8 5.1 11.1 8.3 0.9 0.8 0.2-0.2 1.5 1.2-0.4-0.2-0.7-0.4-0.2 0.2 0.8 0.9-0.2-0.7 1.1 0.9-0.1 0-0.5-0.5-0.5-0.3 3.5 3.1 6.2 8.7 7.8 12.4-0.4-1.5-1.4-3.6-2.2-5.1 2.4 4.4 3.2 7 4.2 10.9 0.4 0.3-0.2-1.4 0.2-0.6 0.1 0.6 0.2 2.5 0.6 2.8-0.3-1.9-0.8-4.2-1.2-4.6 0.3 0.2-0.5-2.3-1-2.9-0.2-1.6-1.6-4.4-2.8-6.5-4.3-8.4-12-15.3-20.6-19.1 0-0.2-0.5-0.4-0.7-0.6-8.5-3.6-18.7-4.6-28.5-2.3-9.9 2.4-19.2 8.1-25.8 16.3 0.3-1 2.8-2.9 2.9-3.7-2.9 3.1-6 7.2-8.1 11.6-2.2 4.4-3.4 8.9-3.9 12.2" fill="#000000" fill-rule="nonzero" stroke="none" stroke-width="1" stroke-linecap="butt" stroke-linejoin="miter" stroke-miterlimit="10" stroke-dasharray="" stroke-dashoffset="0" font-family="none" font-weight="none" font-size="none" text-anchor="none" style="mix-blend-mode: normal" data-fill-palette-color="tertiary"></path></g><g transform="matrix(1,0,0,1,48.000000000000014,114.35372123659307)"><svg viewBox="0 0 223.99999999999997 131.29255752681385" height="131.29255752681385" width="223.99999999999997"><g><svg viewBox="0 0 223.99999999999997 131.29255752681385" height="131.29255752681385" width="223.99999999999997"><g><svg viewBox="0 0 224.00000000000003 131.29255752681388" height="131.29255752681385" width="223.99999999999997"><g transform="matrix(1,0,0,1,0,79.35564900946373)"><svg viewBox="0 0 224.00000000000003 51.93690851735016" height="51.93690851735016" width="224.00000000000003"><g><svg viewBox="0 0 224.00000000000003 51.93690851735016" height="51.93690851735016" width="224.00000000000003"><g><svg viewBox="0 0 224.00000000000003 51.93690851735016" height="51.93690851735016" width="224.00000000000003"><g transform="matrix(1,0,0,1,0,0)"><svg width="224.00000000000003" viewBox="1.1 -36.15 158.49 36.75" height="51.93690851735016" data-palette-color="#233565"><path d="M12.5 0L12.5-29.5 1.1-29.5 1.1-34.3 29.45-34.3 29.45-29.5 18.05-29.5 18.05 0 12.5 0ZM35.75 0.6Q32.5 0.6 29.87-1 27.25-2.6 27.25-6.8L27.25-6.8Q27.25-11.85 31.65-13.8 36.05-15.75 44.25-15.75L44.25-15.75 44.25-18.35Q44.25-20.5 43.12-21.63 42-22.75 38.95-22.75L38.95-22.75Q36-22.75 34.77-21.7 33.55-20.65 33.55-19.15L33.55-19.15 33.55-18.5 28.55-18.5Q28.5-18.8 28.5-19.6L28.5-19.6Q28.5-23.05 31.4-24.98 34.3-26.9 39.15-26.9L39.15-26.9Q44.25-26.9 46.82-24.8 49.4-22.7 49.4-18.85L49.4-18.85 49.4-5.4Q49.4-4.5 49.9-4.08 50.4-3.65 51.15-3.65L51.15-3.65 52.95-3.65 52.95-0.2Q51.65 0.45 49.4 0.45L49.4 0.45Q47.6 0.45 46.37-0.53 45.15-1.5 44.75-3.2L44.75-3.2 44.4-3.2Q43-1.4 40.82-0.4 38.65 0.6 35.75 0.6L35.75 0.6ZM37.25-3.6Q40.2-3.6 42.22-5.38 44.25-7.15 44.25-10.25L44.25-10.25 44.25-11.85Q38.55-11.85 35.55-10.88 32.55-9.9 32.55-7.2L32.55-7.2Q32.55-5.35 33.72-4.48 34.9-3.6 37.25-3.6L37.25-3.6ZM66.19 0.6Q60.8 0.6 57.97-1.65 55.14-3.9 55.14-7.3L55.14-7.3Q55.14-7.85 55.17-8.03 55.2-8.2 55.2-8.25L55.2-8.25 60.24-8.25 60.24-7.8Q60.24-5.65 61.99-4.58 63.74-3.5 66.44-3.5L66.44-3.5Q68.84-3.5 70.47-4.4 72.09-5.3 72.09-6.95L72.09-6.95Q72.09-8.25 71.19-9.08 70.3-9.9 69-10.38 67.69-10.85 65.25-11.5L65.25-11.5Q62.24-12.25 60.34-13 58.45-13.75 57.12-15.25 55.8-16.75 55.8-19.25L55.8-19.25Q55.8-22.85 58.74-24.88 61.7-26.9 66.59-26.9L66.59-26.9Q69.64-26.9 71.92-25.98 74.19-25.05 75.42-23.4 76.64-21.75 76.64-19.7L76.64-19.7 76.59-18.7 71.55-18.7 71.55-19.05Q71.55-20.7 70.22-21.73 68.89-22.75 66.14-22.75L66.14-22.75Q63.49-22.75 62.27-21.83 61.05-20.9 61.05-19.65L61.05-19.65Q61.05-18.1 62.55-17.35 64.05-16.6 67.3-15.85L67.3-15.85Q70.44-15.1 72.44-14.33 74.44-13.55 75.89-11.93 77.34-10.3 77.34-7.6L77.34-7.6Q77.34-3.4 74.32-1.4 71.3 0.6 66.19 0.6L66.19 0.6ZM90.79 0.6Q82.44 0.6 82.44-8.45L82.44-8.45 82.44-26.3 87.59-26.3 87.59-9.1Q87.59-6.15 88.92-4.98 90.24-3.8 92.79-3.8L92.79-3.8Q94.54-3.8 96.04-4.67 97.54-5.55 98.42-7.15 99.29-8.75 99.29-10.85L99.29-10.85 99.29-26.3 104.44-26.3 104.44 0 100.29 0 99.79-3.5 99.44-3.5Q97.99-1.5 95.79-0.45 93.59 0.6 90.79 0.6L90.79 0.6ZM111.24 0L111.24-36.15 116.39-36.15 116.39-14.15 126.79-26.3 132.99-26.3 124.04-16.05 133.49 0 127.54 0 120.79-12.3 116.39-8.1 116.39 0 111.24 0ZM148.14 0.6Q141.79 0.6 138.69-2.75 135.59-6.1 135.59-13.15L135.59-13.15Q135.59-20.2 138.69-23.55 141.79-26.9 148.14-26.9L148.14-26.9Q153.89-26.9 156.74-23.78 159.59-20.65 159.59-13.85L159.59-13.85 159.59-11.85 140.89-11.85Q141.09-7.6 142.81-5.58 144.54-3.55 148.19-3.55L148.19-3.55Q151.04-3.55 152.79-4.9 154.54-6.25 154.54-9.05L154.54-9.05 159.59-9.05Q159.59-4.35 156.41-1.88 153.24 0.6 148.14 0.6L148.14 0.6ZM140.99-15.75L154.24-15.75Q154.24-22.75 148.14-22.75L148.14-22.75Q144.74-22.75 143.04-21.08 141.34-19.4 140.99-15.75L140.99-15.75Z" opacity="1" transform="matrix(1,0,0,1,0,0)" fill="#000000" class="undefined-text-0" data-fill-palette-color="primary" id="text-0"></path></svg></g></svg></g></svg></g></svg></g><g transform="matrix(1,0,0,1,76.11159621451105,0)"><svg viewBox="0 0 71.77680757097792 71.77680757097792" height="71.77680757097792" width="71.77680757097792"><g><svg xmlns="http://www.w3.org/2000/svg" xmlns:xlink="http://www.w3.org/1999/xlink" version="1.1" x="0" y="0" viewBox="2.2 2.2 95.6 95.6" enable-background="new 0 0 100 100" xml:space="preserve" height="71.77680757097792" width="71.77680757097792" class="icon-icon-0" data-fill-palette-color="accent" id="icon-0"><path d="M50 97.8L2.2 50 50 2.2 97.8 50 50 97.8zM13.5 50L50 86.5 86.5 50 50 13.5 13.5 50z" fill="#000000" data-fill-palette-color="accent"></path><g fill="#243464" data-fill-palette-color="accent"><path d="M43.1 47.1v5.8h9.5 12.4v-5.8H43.1z" fill="#000000" data-fill-palette-color="accent"></path></g><g fill="#243464" data-fill-palette-color="accent"><rect x="35.1" y="37.5" width="5.8" height="6.2" fill="#000000" data-fill-palette-color="accent"></rect></g><g fill="#243464" data-fill-palette-color="accent"><rect x="35.1" y="46.9" width="5.8" height="6.2" fill="#000000" data-fill-palette-color="accent"></rect></g><g fill="#243464" data-fill-palette-color="accent"><rect x="35.1" y="56.2" width="5.8" height="6.2" fill="#000000" data-fill-palette-color="accent"></rect></g><g fill="#243464" data-fill-palette-color="accent"><path d="M42.9 37.7v5.8h9.5 12.4v-5.8H42.9z" fill="#000000" data-fill-palette-color="accent"></path></g><g fill="#243464" data-fill-palette-color="accent"><path d="M43.1 56.4v5.8h9.5 12.4v-5.8H43.1z" fill="#000000" data-fill-palette-color="accent"></path></g></svg></g></svg></g><g></g></svg></g></svg></g></svg></g></svg></g><defs></defs></svg><rect width="320" height="360" fill="none" stroke="none" visibility="hidden"></rect></g></svg></g></svg>